<svg width="968" height="1044" viewBox="0 0 968 1044" fill="none" xmlns="http://www.w3.org/2000/svg">
<path d="M584.322 461.805C527.164 490.339 496.347 588.559 519.303 638.772C544.665 694.222 703.253 685.8 721.45 672.28C739.648 658.757 590.88 615.491 611.181 564.47C633.726 507.838 746.937 507.761 743.855 483.578C740.823 459.785 650.392 428.827 584.322 461.805Z" stroke="#70587C" stroke-opacity="0.13" stroke-width="3" stroke-miterlimit="10"/>
<path d="M566.427 454.827C499.432 479.692 470.362 598.582 499.895 654.592C533.366 718.032 705.661 694.518 731.236 684.478C753.282 675.837 610.164 617.652 627.276 556C645.846 489.018 747.954 478.139 740.326 462.598C732.126 445.938 645.044 425.718 566.427 454.827Z" stroke="#70587C" stroke-opacity="0.13" stroke-width="3" stroke-miterlimit="10"/>
<path d="M548.535 447.866C471.806 468.986 444.432 608.592 480.486 670.4C522.139 741.889 706.695 703.036 741.021 696.695C765.973 692.032 629.575 619.891 643.352 547.499C658.057 470.291 751.269 447.647 736.798 441.727C725.998 431.236 639.983 422.674 548.535 447.866Z" stroke="#70587C" stroke-opacity="0.13" stroke-width="3" stroke-miterlimit="10"/>
<path d="M530.64 440.84C444.234 458.372 418.552 618.538 461.131 686.172C511.034 765.557 710.171 722.773 750.859 708.864C776.345 700.144 649.109 622.098 659.482 539.014C670.406 451.58 753.48 417.576 733.322 420.792C718.581 416.954 634.903 419.72 530.64 440.84Z" stroke="#70587C" stroke-opacity="0.13" stroke-width="3" stroke-miterlimit="10"/>
<path d="M512.743 433.909C416.697 447.897 392.707 628.547 441.667 702.041C499.84 789.381 709.01 732.16 760.589 721.11C789.533 714.893 668.587 624.413 675.52 530.592C682.65 432.93 757.505 391.483 729.737 399.922C711.952 405.313 629.859 416.845 512.743 433.909Z" stroke="#70587C" stroke-opacity="0.13" stroke-width="3" stroke-miterlimit="10"/>
<path d="M494.869 426.931C389.162 437.452 366.884 638.524 422.259 717.846C488.756 813.129 708.175 724.901 770.394 733.388C802.636 737.753 688.196 626.744 691.617 522.167C695.181 414.312 760.236 360.679 726.21 379.081C705.038 390.457 624.834 414.017 494.869 426.931Z" stroke="#70587C" stroke-opacity="0.13" stroke-width="3" stroke-miterlimit="10"/>
<path d="M476.977 419.97C361.627 427.025 341.078 648.424 402.834 733.667C477.69 836.861 708.941 731.304 780.162 745.526C815.006 752.487 707.783 628.967 707.676 513.635C707.568 395.523 762.392 329.94 722.665 358.1C697.749 375.771 619.808 411.219 476.977 419.97Z" stroke="#70587C" stroke-opacity="0.13" stroke-width="3" stroke-miterlimit="10"/>
<path d="M459.08 412.99C334.086 416.627 315.32 658.416 383.421 749.487C466.583 860.592 709.901 737.474 789.943 757.741C827.478 767.235 727.421 631.205 723.766 505.165C720.042 376.858 764.404 299.448 719.133 337.196C690.33 361.191 614.745 408.469 459.08 412.99Z" stroke="#70587C" stroke-opacity="0.13" stroke-width="3" stroke-miterlimit="10"/>
<path d="M441.187 406.013C306.552 406.246 289.478 668.362 364.013 765.307C455.516 884.322 711.025 743.55 799.731 769.97C840.044 781.983 747.08 633.489 739.844 496.711C732.52 358.177 766.383 269.096 715.606 316.293C682.846 346.707 609.737 405.734 441.187 406.013Z" stroke="#70587C" stroke-opacity="0.13" stroke-width="3" stroke-miterlimit="10"/>
<path d="M423.293 399.05C278.926 395.942 263.688 678.293 344.604 781.113C444.413 908.023 712.29 749.456 809.514 782.156C852.68 796.671 766.739 635.726 755.92 488.226C745.013 339.465 768.396 238.775 712.059 295.36C675.343 332.271 604.693 403.03 423.293 399.05Z" stroke="#70587C" stroke-opacity="0.13" stroke-width="3" stroke-miterlimit="10"/>
<path d="M405.398 392.072C251.444 385.53 237.863 688.225 325.196 796.935C433.415 931.739 713.735 755.347 819.299 794.371C865.371 811.372 786.434 637.981 772.015 479.756C757.524 320.754 770.339 208.531 708.531 274.456C667.823 317.864 599.632 400.34 405.398 392.072Z" stroke="#70587C" stroke-opacity="0.13" stroke-width="3" stroke-miterlimit="10"/>
<path d="M387.503 385.094C223.888 375.18 212.143 698.154 305.785 812.756C422.383 955.439 715.105 761.19 829.082 806.538C878.078 826.058 806.109 640.248 788.091 471.238C770.036 302.011 772.318 178.273 705 253.507C660.318 303.472 594.568 397.651 387.503 385.094Z" stroke="#70587C" stroke-opacity="0.13" stroke-width="3" stroke-miterlimit="10"/>
<path d="M369.611 378.132C196.319 364.844 186.374 708.148 286.379 828.562C411.352 979.138 716.623 767.018 838.888 818.786C890.859 840.791 825.823 642.471 804.187 462.8C782.549 283.128 774.297 148.107 701.474 232.589C652.8 289.096 589.509 394.995 369.611 378.132Z" stroke="#70587C" stroke-opacity="0.13" stroke-width="3" stroke-miterlimit="10"/>
<path d="M351.718 371.154C168.747 354.509 160.602 718 266.952 844.382C400.32 1002.9 718.209 772.893 848.655 831.001C903.638 855.509 845.518 644.709 820.263 454.329C795.08 264.619 776.295 117.942 697.926 211.718C645.278 274.737 584.448 392.32 351.718 371.154Z" stroke="#70587C" stroke-opacity="0.13" stroke-width="3" stroke-miterlimit="10"/>
<path d="M333.819 364.176C141.172 344.174 135.112 727.746 247.594 860.202C389.695 1026.31 719.899 778.611 858.491 843.202C916.486 870.227 865.28 646.946 836.39 445.859C807.659 245.909 778.341 87.7611 694.448 190.8C637.754 260.376 579.347 389.678 333.819 364.176Z" stroke="#70587C" stroke-opacity="0.13" stroke-width="3" stroke-miterlimit="10"/>
<path d="M315.928 357.213C113.602 333.855 109.325 737.676 228.133 875.994C378.575 1050.05 721.488 784.3 868.223 855.386C929.267 884.913 884.941 649.155 852.415 437.329C820.156 227.118 780.286 57.5492 690.867 169.818C630.234 246.017 574.272 387.022 315.928 357.213Z" stroke="#70587C" stroke-opacity="0.13" stroke-width="3" stroke-miterlimit="10"/>
<path d="M298.034 350.236C85.9412 323.537 83.5172 747.622 208.723 891.829C367.507 1073.66 723.162 790.174 878.008 867.615C942.17 899.676 905.082 651.376 868.491 428.904C833.112 208.406 782.282 27.4458 687.339 148.978C622.714 231.673 569.173 384.379 298.034 350.236Z" stroke="#70587C" stroke-opacity="0.13" stroke-width="3" stroke-miterlimit="10"/>
<path d="M280.141 343.258C58.3704 313.559 57.711 757.57 189.315 907.651C356.44 1097.47 724.876 795.955 887.813 879.832C954.952 914.395 924.705 653.614 884.585 420.434C845.573 189.696 784.278 -2.688 683.794 128.06C615.194 217.328 564.006 382.174 280.141 343.258Z" stroke="#70587C" stroke-opacity="0.13" stroke-width="3" stroke-miterlimit="10"/>
<path d="M262.244 336.295C30.7951 303.162 31.9358 767.499 169.903 923.471C345.352 1121.19 726.6 801.721 897.594 892.047C967.798 929.127 944.343 655.82 900.659 411.964C858.027 170.984 786.291 -32.838 680.261 107.157C607.615 203.061 558.922 379.437 262.244 336.295Z" stroke="#70587C" stroke-opacity="0.13" stroke-width="3" stroke-miterlimit="10"/>
<path d="M244.349 329.317C3.22384 292.764 6.11114 777.445 150.494 939.277C334.284 1144.85 728.366 807.504 907.379 904.247C980.667 943.861 964.074 658.106 916.737 403.542C870.396 152.319 788.002 -63.0965 676.733 86.285C599.935 188.531 553.844 376.687 244.349 329.317Z" stroke="#70587C" stroke-opacity="0.13" stroke-width="3" stroke-miterlimit="10"/>
<path d="M226.457 322.34C-24.3461 282.321 -19.7478 787.408 131.087 955.097C323.219 1168.62 730.133 813.285 917.166 916.4C993.556 958.547 983.627 660.281 932.832 394.963C882.945 133.545 790.16 -93.1844 673.206 65.3197C592.522 174.263 548.802 374.014 226.457 322.34Z" stroke="#70587C" stroke-opacity="0.13" stroke-width="3" stroke-miterlimit="10"/>
<path d="M669.659 44.4167C585.107 159.981 543.667 371.2 208.562 315.377C-51.937 271.971 -45.5029 797.323 111.659 970.918C312.149 1192.35 731.897 819.065 926.949 928.661C1084.68 1017.31 916.916 -293.557 669.659 44.4167Z" stroke="#70587C" stroke-opacity="0.13" stroke-width="3" stroke-miterlimit="10"/>
</svg>
